<svg width="32" height="43" viewBox="0 0 32 43" fill="none" xmlns="http://www.w3.org/2000/svg">
<path d="M16 0.5C24.5535 0.5 31.5 7.49512 31.5 16.125C31.5 17.8624 30.9193 19.9837 29.9482 22.3018C28.9807 24.6116 27.6423 27.0784 26.1641 29.4951C23.208 34.3278 19.7164 38.9238 17.584 41.6133C16.8107 42.5826 15.4276 42.6432 14.5781 41.7949L14.416 41.6133C12.2836 38.9238 8.79204 34.3278 5.83594 29.4951C4.35766 27.0784 3.01934 24.6116 2.05176 22.3018C1.08074 19.9837 0.5 17.8624 0.5 16.125C0.5 7.49512 7.44647 0.5 16 0.5Z" fill="#0511F2" stroke="#2C2C2C"/>
</svg>
